<svg xmlns="http://www.w3.org/2000/svg" xmlns:xlink="http://www.w3.org/1999/xlink" version="1.1" class="marks" width="310" height="310" viewBox="0 0 310 310"><rect width="310" height="310" fill="white"/><g fill="none" stroke-miterlimit="10" transform="translate(5,5)"><g class="mark-group role-frame root" role="graphics-object" aria-roledescription="group mark container"><g transform="translate(0,0)"><path class="background" aria-hidden="true" d="M0,0h300v300h-300Z"/><g><g class="mark-arc role-mark layer_0_marks" role="graphics-object" aria-roledescription="arc mark container"><path aria-label="Profit: 2; Area: North" role="graphics-symbol" aria-roledescription="arc mark" transform="translate(150,150)" d="M-19.41142838268903,72.44443697168013A75,75,0,0,0,19.41142838268907,72.44443697168012L0,0Z" fill="#e45756"/><path aria-label="Profit: 8; Area: East" role="graphics-symbol" aria-roledescription="arc mark" transform="translate(150,150)" d="M19.41142838268907,72.44443697168012A75,75,0,0,0,53.033008588991066,-53.03300858899106L0,0Z" fill="#f58518"/><path aria-label="Profit: 6; Area: West" role="graphics-symbol" aria-roledescription="arc mark" transform="translate(150,150)" d="M-1.3777276490407723e-14,-75A75,75,0,0,0,-75,9.184850993605149e-15L0,0Z" fill="#54a24b"/><path aria-label="Profit: 5; Area: South" role="graphics-symbol" aria-roledescription="arc mark" transform="translate(150,150)" d="M-75,9.184850993605149e-15A75,75,0,0,0,-19.41142838268903,72.44443697168013L0,0Z" fill="#72b7b2"/><path aria-label="Profit: 3; Area: Central" role="graphics-symbol" aria-roledescription="arc mark" transform="translate(150,150)" d="M53.033008588991066,-53.03300858899106A75,75,0,0,0,4.592425496802574e-15,-75L0,0Z" fill="#4c78a8"/></g><g class="mark-text role-mark layer_1_marks" role="graphics-object" aria-roledescription="text mark container"><text aria-label="Profit: 2; Area: North" role="graphics-symbol" aria-roledescription="text mark" text-anchor="middle" transform="translate(150,263)" font-family="sans-serif" font-size="11px" fill="#e45756">North</text><text aria-label="Profit: 8; Area: East" role="graphics-symbol" aria-roledescription="text mark" text-anchor="middle" transform="translate(256.2518408917975,181.4700949612773)" font-family="sans-serif" font-size="11px" fill="#f58518">East</text><text aria-label="Profit: 6; Area: West" role="graphics-symbol" aria-roledescription="text mark" text-anchor="middle" transform="translate(72.21825406947976,75.21825406947978)" font-family="sans-serif" font-size="11px" fill="#54a24b">West</text><text aria-label="Profit: 5; Area: South" role="graphics-symbol" aria-roledescription="text mark" text-anchor="middle" transform="translate(62.73113256796414,219.9637571909593)" font-family="sans-serif" font-size="11px" fill="#72b7b2">South</text><text aria-label="Profit: 3; Area: Central" role="graphics-symbol" aria-roledescription="text mark" text-anchor="middle" transform="translate(192.09517756015987,51.37325142375846)" font-family="sans-serif" font-size="11px" fill="#4c78a8">Central</text></g></g><path class="foreground" aria-hidden="true" d="" display="none"/></g></g></g></svg>