<svg xmlns="http://www.w3.org/2000/svg" xmlns:xlink="http://www.w3.org/1999/xlink" version="1.1" class="marks" width="377" height="310" viewBox="0 0 377 310"><rect width="377" height="310" fill="white"/><g fill="none" stroke-miterlimit="10" transform="translate(5,5)"><g class="mark-group role-frame root" role="graphics-object" aria-roledescription="group mark container"><g transform="translate(0,0)"><path class="background" aria-hidden="true" d="M0,0h300v300h-300Z"/><g><g class="mark-arc role-mark marks" role="graphics-object" aria-roledescription="arc mark container"><path aria-label="Profit: 2; Area: North" role="graphics-symbol" aria-roledescription="arc mark" transform="translate(150,150)" d="M-38.82285676537806,144.88887394336027A150,150,0,0,0,38.82285676537814,144.88887394336024L28.470094961277304,106.2518408917975A110,110,0,0,1,-28.470094961277244,106.25184089179753Z" fill="#e45756"/><path aria-label="Profit: 8; Area: East" role="graphics-symbol" aria-roledescription="arc mark" transform="translate(150,150)" d="M38.82285676537814,144.88887394336024A150,150,0,0,0,106.06601717798213,-106.06601717798212L77.78174593052023,-77.78174593052022A110,110,0,0,1,28.470094961277304,106.2518408917975Z" fill="#f58518"/><path aria-label="Profit: 6; Area: West" role="graphics-symbol" aria-roledescription="arc mark" transform="translate(150,150)" d="M-2.7554552980815446e-14,-150A150,150,0,0,0,-150,1.8369701987210297e-14L-110,1.3471114790620885e-14A110,110,0,0,1,-2.0206672185931328e-14,-110Z" fill="#54a24b"/><path aria-label="Profit: 5; Area: South" role="graphics-symbol" aria-roledescription="arc mark" transform="translate(150,150)" d="M-150,1.8369701987210297e-14A150,150,0,0,0,-38.82285676537806,144.88887394336027L-28.470094961277244,106.25184089179753A110,110,0,0,1,-110,1.3471114790620885e-14Z" fill="#72b7b2"/><path aria-label="Profit: 3; Area: Central" role="graphics-symbol" aria-roledescription="arc mark" transform="translate(150,150)" d="M106.06601717798213,-106.06601717798212A150,150,0,0,0,9.184850993605149e-15,-150L6.735557395310443e-15,-110A110,110,0,0,1,77.78174593052023,-77.78174593052022Z" fill="#4c78a8"/></g><g class="mark-group role-legend" role="graphics-symbol" aria-roledescription="legend" aria-label="Symbol legend titled 'Area' for fill color with 5 values: Central, East, North, South, West"><g transform="translate(318,0)"><path class="background" aria-hidden="true" d="M0,0h49v79h-49Z" pointer-events="none"/><g><g class="mark-group role-legend-entry"><g transform="translate(0,16)"><path class="background" aria-hidden="true" d="M0,0h0v0h0Z" pointer-events="none"/><g><g class="mark-group role-scope" role="graphics-object" aria-roledescription="group mark container"><g transform="translate(0,0)"><path class="background" aria-hidden="true" d="M0,0h48.236328125v11h-48.236328125Z" pointer-events="none" opacity="1"/><g><g class="mark-symbol role-legend-symbol" pointer-events="none"><path transform="translate(6,6)" d="M5,0A5,5,0,1,1,-5,0A5,5,0,1,1,5,0" fill="#4c78a8" stroke-width="1.5" opacity="1"/></g><g class="mark-text role-legend-label" pointer-events="none"><text text-anchor="start" transform="translate(16,9)" font-family="sans-serif" font-size="10px" fill="#000" opacity="1">Central</text></g></g><path class="foreground" aria-hidden="true" d="" pointer-events="none" display="none"/></g><g transform="translate(0,13)"><path class="background" aria-hidden="true" d="M0,0h48.236328125v11h-48.236328125Z" pointer-events="none" opacity="1"/><g><g class="mark-symbol role-legend-symbol" pointer-events="none"><path transform="translate(6,6)" d="M5,0A5,5,0,1,1,-5,0A5,5,0,1,1,5,0" fill="#f58518" stroke-width="1.5" opacity="1"/></g><g class="mark-text role-legend-label" pointer-events="none"><text text-anchor="start" transform="translate(16,9)" font-family="sans-serif" font-size="10px" fill="#000" opacity="1">East</text></g></g><path class="foreground" aria-hidden="true" d="" pointer-events="none" display="none"/></g><g transform="translate(0,26)"><path class="background" aria-hidden="true" d="M0,0h48.236328125v11h-48.236328125Z" pointer-events="none" opacity="1"/><g><g class="mark-symbol role-legend-symbol" pointer-events="none"><path transform="translate(6,6)" d="M5,0A5,5,0,1,1,-5,0A5,5,0,1,1,5,0" fill="#e45756" stroke-width="1.5" opacity="1"/></g><g class="mark-text role-legend-label" pointer-events="none"><text text-anchor="start" transform="translate(16,9)" font-family="sans-serif" font-size="10px" fill="#000" opacity="1">North</text></g></g><path class="foreground" aria-hidden="true" d="" pointer-events="none" display="none"/></g><g transform="translate(0,39)"><path class="background" aria-hidden="true" d="M0,0h48.236328125v11h-48.236328125Z" pointer-events="none" opacity="1"/><g><g class="mark-symbol role-legend-symbol" pointer-events="none"><path transform="translate(6,6)" d="M5,0A5,5,0,1,1,-5,0A5,5,0,1,1,5,0" fill="#72b7b2" stroke-width="1.5" opacity="1"/></g><g class="mark-text role-legend-label" pointer-events="none"><text text-anchor="start" transform="translate(16,9)" font-family="sans-serif" font-size="10px" fill="#000" opacity="1">South</text></g></g><path class="foreground" aria-hidden="true" d="" pointer-events="none" display="none"/></g><g transform="translate(0,52)"><path class="background" aria-hidden="true" d="M0,0h48.236328125v11h-48.236328125Z" pointer-events="none" opacity="1"/><g><g class="mark-symbol role-legend-symbol" pointer-events="none"><path transform="translate(6,6)" d="M5,0A5,5,0,1,1,-5,0A5,5,0,1,1,5,0" fill="#54a24b" stroke-width="1.5" opacity="1"/></g><g class="mark-text role-legend-label" pointer-events="none"><text text-anchor="start" transform="translate(16,9)" font-family="sans-serif" font-size="10px" fill="#000" opacity="1">West</text></g></g><path class="foreground" aria-hidden="true" d="" pointer-events="none" display="none"/></g></g></g><path class="foreground" aria-hidden="true" d="" pointer-events="none" display="none"/></g></g><g class="mark-text role-legend-title" pointer-events="none"><text text-anchor="start" transform="translate(0,9)" font-family="sans-serif" font-size="11px" font-weight="bold" fill="#000" opacity="1">Area</text></g></g><path class="foreground" aria-hidden="true" d="" pointer-events="none" display="none"/></g></g></g><path class="foreground" aria-hidden="true" d="" display="none"/></g></g></g></svg>